<svg width="177" height="44" viewBox="0 0 177 44" fill="none" xmlns="http://www.w3.org/2000/svg">
<path d="M0.958008 3.01758H9.8584C13.9873 3.01758 16.9678 3.61914 18.7998 4.82227C20.6455 6.02539 21.5684 7.92578 21.5684 10.5234C21.5684 12.2734 21.1172 13.7295 20.2148 14.8916C19.3125 16.0537 18.0137 16.7852 16.3184 17.0859V17.291C18.4238 17.6875 19.9688 18.4736 20.9531 19.6494C21.9512 20.8115 22.4502 22.3906 22.4502 24.3867C22.4502 27.0801 21.5068 29.1924 19.6201 30.7236C17.7471 32.2412 15.1357 33 11.7861 33H0.958008V3.01758ZM5.85938 15.4043H10.5762C12.627 15.4043 14.124 15.083 15.0674 14.4404C16.0107 13.7842 16.4824 12.6768 16.4824 11.1182C16.4824 9.70996 15.9697 8.69141 14.9443 8.0625C13.9326 7.43359 12.3193 7.11914 10.1045 7.11914H5.85938V15.4043ZM5.85938 19.3828V28.8779H11.0684C13.1191 28.8779 14.6641 28.4883 15.7031 27.709C16.7559 26.916 17.2822 25.6719 17.2822 23.9766C17.2822 22.418 16.749 21.2627 15.6826 20.5107C14.6162 19.7588 12.9961 19.3828 10.8223 19.3828H5.85938ZM44.168 33L43.4912 30.0264H43.2451C42.5752 31.0791 41.6182 31.9062 40.374 32.5078C39.1436 33.1094 37.7354 33.4102 36.1494 33.4102C33.4014 33.4102 31.3506 32.7266 29.9971 31.3594C28.6436 29.9922 27.9668 27.9209 27.9668 25.1455V10.3184H32.8271V24.3047C32.8271 26.041 33.1826 27.3467 33.8936 28.2217C34.6045 29.083 35.7188 29.5137 37.2363 29.5137C39.2598 29.5137 40.7432 28.9121 41.6865 27.709C42.6436 26.4922 43.1221 24.4619 43.1221 21.6182V10.3184H47.9619V33H44.168ZM63.2812 29.5137C64.457 29.5137 65.6328 29.3291 66.8086 28.96V32.5898C66.2754 32.8223 65.585 33.0137 64.7373 33.1641C63.9033 33.3281 63.0352 33.4102 62.1328 33.4102C57.5664 33.4102 55.2832 31.0039 55.2832 26.1914V13.9688H52.1865V11.8359L55.5088 10.0723L57.1494 5.27344H60.123V10.3184H66.583V13.9688H60.123V26.1094C60.123 27.2715 60.4102 28.1328 60.9844 28.6934C61.5723 29.2402 62.3379 29.5137 63.2812 29.5137ZM79.8105 29.5137C80.9863 29.5137 82.1621 29.3291 83.3379 28.96V32.5898C82.8047 32.8223 82.1143 33.0137 81.2666 33.1641C80.4326 33.3281 79.5645 33.4102 78.6621 33.4102C74.0957 33.4102 71.8125 31.0039 71.8125 26.1914V13.9688H68.7158V11.8359L72.0381 10.0723L73.6787 5.27344H76.6523V10.3184H83.1123V13.9688H76.6523V26.1094C76.6523 27.2715 76.9395 28.1328 77.5137 28.6934C78.1016 29.2402 78.8672 29.5137 79.8105 29.5137ZM97.7959 33.4102C94.2686 33.4102 91.5068 32.3848 89.5107 30.334C87.5283 28.2695 86.5371 25.4326 86.5371 21.8232C86.5371 18.1182 87.46 15.2061 89.3057 13.0869C91.1514 10.9678 93.6875 9.9082 96.9141 9.9082C99.9082 9.9082 102.273 10.8174 104.01 12.6357C105.746 14.4541 106.614 16.9561 106.614 20.1416V22.7461H91.5C91.5684 24.9473 92.1631 26.6426 93.2842 27.832C94.4053 29.0078 95.9844 29.5957 98.0215 29.5957C99.3613 29.5957 100.605 29.4727 101.754 29.2266C102.916 28.9668 104.16 28.543 105.486 27.9551V31.8721C104.311 32.4326 103.121 32.8291 101.918 33.0615C100.715 33.2939 99.3408 33.4102 97.7959 33.4102ZM96.9141 13.5586C95.3828 13.5586 94.1523 14.0439 93.2227 15.0146C92.3066 15.9854 91.7598 17.4004 91.582 19.2598H101.877C101.85 17.3867 101.398 15.9717 100.523 15.0146C99.6484 14.0439 98.4453 13.5586 96.9141 13.5586ZM123.595 9.9082C124.565 9.9082 125.365 9.97656 125.994 10.1133L125.522 14.6045C124.839 14.4404 124.128 14.3584 123.39 14.3584C121.462 14.3584 119.896 14.9873 118.693 16.2451C117.504 17.5029 116.909 19.1367 116.909 21.1465V33H112.09V10.3184H115.863L116.499 14.3174H116.745C117.497 12.9639 118.475 11.8906 119.678 11.0977C120.895 10.3047 122.2 9.9082 123.595 9.9082ZM141.601 13.9688H136.063V33H131.224V13.9688H127.491V11.7129L131.224 10.2363V8.75977C131.224 6.08008 131.853 4.09766 133.11 2.8125C134.368 1.51367 136.289 0.864258 138.873 0.864258C140.568 0.864258 142.236 1.14453 143.877 1.70508L142.605 5.35547C141.416 4.97266 140.281 4.78125 139.201 4.78125C138.107 4.78125 137.308 5.12305 136.802 5.80664C136.31 6.47656 136.063 7.48828 136.063 8.8418V10.3184H141.601V13.9688ZM150.275 33H145.456V1.08984H150.275V33ZM153.762 10.3184H159.012L163.626 23.1768C164.323 25.0088 164.788 26.7314 165.021 28.3447H165.185C165.308 27.5928 165.533 26.6836 165.861 25.6172C166.189 24.5371 167.926 19.4375 171.07 10.3184H176.279L166.579 36.0146C164.815 40.7314 161.876 43.0898 157.761 43.0898C156.694 43.0898 155.655 42.9736 154.644 42.7412V38.9268C155.368 39.0908 156.195 39.1729 157.125 39.1729C159.449 39.1729 161.083 37.8262 162.026 35.1328L162.867 33L153.762 10.3184Z" fill="white"/>
</svg>
